<?xml version="1.0" encoding="UTF-8" standalone="no"?>
<!DOCTYPE svg PUBLIC "-//W3C//DTD SVG 1.1//EN" "http://www.w3.org/Graphics/SVG/1.1/DTD/svg11.dtd">
<svg xmlns="http://www.w3.org/2000/svg" version="1.1" viewBox="0.00 0.00 500.00 500.00">
<path fill="#bebebe" d="
  M 251.89 71.44
  Q 251.59 71.60 251.19 72.73
  Q 211.22 185.10 195.63 229.41
  Q 195.00 231.19 194.48 232.01
  A 1.11 1.10 -64.3 0 1 193.19 232.47
  L 150.62 218.20
  A 1.27 1.27 0.0 0 1 149.84 216.54
  L 227.85 15.91
  A 2.01 2.01 0.0 0 1 229.72 14.63
  Q 254.15 14.54 273.99 14.56
  Q 276.04 14.56 276.81 16.69
  Q 316.93 126.25 350.27 216.86
  A 1.14 1.14 0.0 0 1 349.56 218.33
  L 306.81 232.32
  A 1.39 1.39 0.0 0 1 305.05 231.43
  L 252.78 71.80
  A 0.62 0.62 0.0 0 0 251.89 71.44
  Z"
/>
<path fill="#dddddd" d="
  M 248.10 420.73
  Q 248.39 420.58 248.78 419.48
  Q 287.68 310.05 302.85 266.90
  Q 303.47 265.17 303.97 264.37
  A 1.08 1.07 -64.3 0 1 305.23 263.92
  L 346.69 277.81
  A 1.23 1.23 0.0 0 1 347.45 279.42
  L 271.51 474.80
  A 1.96 1.95 -79.3 0 1 269.69 476.05
  Q 245.90 476.14 226.59 476.13
  Q 224.59 476.13 223.84 474.05
  Q 184.75 367.37 152.27 279.15
  A 1.11 1.11 0.0 0 1 152.96 277.71
  L 194.59 264.08
  A 1.35 1.35 0.0 0 1 196.30 264.95
  L 247.23 420.38
  A 0.61 0.60 66.9 0 0 248.10 420.73
  Z"
/>
</svg>
